<?xml version="1.0"?>
<svg width="640" height="480" xmlns="http://www.w3.org/2000/svg" xmlns:svg="http://www.w3.org/2000/svg" xmlns:xlink="http://www.w3.org/1999/xlink">
 <!-- Created with SVG-edit - https://github.com/SVG-Edit/svgedit-->
 <defs>
  <symbol id="svg_2" viewBox="0 0 512 512" x="0px" xmlns="http://www.w3.org/2000/svg" xmlns:xlink="http://www.w3.org/1999/xlink" y="0px">
   <g>
    <g>
     <path d="m255.968,5.329c-141.344,0 -255.968,115.072 -255.968,257.024c0,113.536 73.344,209.856 175.104,243.872c12.8,2.368 17.472,-5.568 17.472,-12.384c0,-6.112 -0.224,-22.272 -0.352,-43.712c-71.2,15.52 -86.24,-34.464 -86.24,-34.464c-11.616,-29.696 -28.416,-37.6 -28.416,-37.6c-23.264,-15.936 1.728,-15.616 1.728,-15.616c25.696,1.824 39.2,26.496 39.2,26.496c22.848,39.264 59.936,27.936 74.528,21.344c2.304,-16.608 8.928,-27.936 16.256,-34.368c-56.832,-6.496 -116.608,-28.544 -116.608,-127.008c0,-28.064 9.984,-51.008 26.368,-68.992c-2.656,-6.496 -11.424,-32.64 2.496,-68c0,0 21.504,-6.912 70.4,26.336c20.416,-5.696 42.304,-8.544 64.096,-8.64c21.728,0.128 43.648,2.944 64.096,8.672c48.864,-33.248 70.336,-26.336 70.336,-26.336c13.952,35.392 5.184,61.504 2.56,68c16.416,17.984 26.304,40.928 26.304,68.992c0,98.72 -59.84,120.448 -116.864,126.816c9.184,7.936 17.376,23.616 17.376,47.584c0,34.368 -0.32,62.08 -0.32,70.496c0,6.88 4.608,14.88 17.6,12.352c101.6,-34.048 174.88,-130.336 174.88,-243.84c0,-141.952 -114.624,-257.024 -256.032,-257.024z"/>
    </g>
   </g>
   <g/>
   <g/>
   <g/>
   <g/>
   <g/>
   <g/>
   <g/>
   <g/>
   <g/>
   <g/>
   <g/>
   <g/>
   <g/>
   <g/>
   <g/>
  </symbol>
 </defs>
 <g class="layer">
  <title>Layer 1</title>
  <use fill="#232c39" id="svg_3" transform="matrix(0.3125 0 0 0.3125 0 0)" x="0" xlink:href="#svg_2" y="0"/>
 </g>
</svg>